<svg width="81" height="43" viewBox="0 0 81 43" fill="none" xmlns="http://www.w3.org/2000/svg">
<path d="M79.074 11.2433C78.3203 12.3197 74.0656 15.8188 73.6382 15.5195C73.2108 15.2203 75.0437 10.0254 75.7974 8.94902C76.5511 7.8726 77.8956 7.5136 78.8004 8.14715C79.7052 8.78071 79.8277 10.1669 79.074 11.2433Z" fill="#2D9CDB"/>
<path d="M4.79296 9.16558C5.63042 10.3616 7.80145 16.0394 7.37407 16.3387C6.94668 16.6379 2.35381 12.6559 1.51635 11.4599C0.678894 10.2639 0.733494 8.78071 1.6383 8.14716C2.54311 7.5136 3.9555 7.96957 4.79296 9.16558Z" fill="#2D9CDB"/>
<path d="M42 2.64368C42 4.10374 40.5217 10 40 10C39.4783 10 38 4.10374 38 2.64368C38 1.18362 38.8954 0 40 0C41.1046 0 42 1.18362 42 2.64368Z" fill="#2D9CDB"/>
<path d="M28.392 37.352V36.2C28.392 36.104 28.416 36.064 28.464 36.08C28.528 36.096 28.6 36.12 28.68 36.152C29 36.248 29.352 36.344 29.736 36.44C30.12 36.536 30.504 36.616 30.888 36.68C31.272 36.728 31.6 36.752 31.872 36.752C32.992 36.752 33.832 36.448 34.392 35.84C34.952 35.232 35.232 34.432 35.232 33.44C35.232 32.56 34.992 31.888 34.512 31.424C34.048 30.944 33.288 30.56 32.232 30.272C31.768 30.16 31.288 30.024 30.792 29.864C30.296 29.704 29.832 29.48 29.4 29.192C28.984 28.888 28.64 28.48 28.368 27.968C28.112 27.44 27.984 26.76 27.984 25.928C27.984 24.936 28.208 24.136 28.656 23.528C29.104 22.92 29.696 22.472 30.432 22.184C31.168 21.896 31.968 21.752 32.832 21.752C33.216 21.752 33.608 21.784 34.008 21.848C34.408 21.896 34.784 21.968 35.136 22.064C35.504 22.16 35.824 22.272 36.096 22.4C36.192 22.416 36.248 22.448 36.264 22.496C36.296 22.528 36.312 22.584 36.312 22.664V23.672C36.312 23.896 36.168 23.936 35.88 23.792C35.496 23.616 35.056 23.464 34.56 23.336C34.08 23.192 33.536 23.12 32.928 23.12C31.984 23.12 31.216 23.36 30.624 23.84C30.032 24.304 29.736 24.968 29.736 25.832C29.736 26.408 29.848 26.872 30.072 27.224C30.296 27.576 30.592 27.856 30.96 28.064C31.328 28.272 31.728 28.44 32.16 28.568C32.592 28.696 33.024 28.816 33.456 28.928C34.24 29.168 34.896 29.448 35.424 29.768C35.952 30.088 36.352 30.528 36.624 31.088C36.912 31.648 37.056 32.4 37.056 33.344C37.056 34.384 36.84 35.264 36.408 35.984C35.992 36.704 35.4 37.256 34.632 37.64C33.88 38.024 32.968 38.216 31.896 38.216C31.448 38.216 30.92 38.16 30.312 38.048C29.72 37.936 29.168 37.8 28.656 37.64C28.56 37.608 28.488 37.576 28.44 37.544C28.408 37.496 28.392 37.432 28.392 37.352ZM39.0956 38C39.0156 38 38.9676 37.976 38.9516 37.928C38.9356 37.864 38.9356 37.752 38.9516 37.592C39.0636 36.84 39.2316 35.936 39.4556 34.88C39.6796 33.824 39.9436 32.696 40.2476 31.496C40.5516 30.296 40.8716 29.104 41.2076 27.92C41.5596 26.736 41.9196 25.64 42.2876 24.632C42.6556 23.608 43.0076 22.76 43.3436 22.088C43.3916 22.008 43.4396 21.952 43.4876 21.92C43.5356 21.872 43.5916 21.848 43.6556 21.848H45.6236C45.7036 21.864 45.7676 21.888 45.8156 21.92C45.8796 21.952 45.9356 22.016 45.9836 22.112C46.3036 22.752 46.6396 23.584 46.9916 24.608C47.3596 25.632 47.7196 26.744 48.0716 27.944C48.4236 29.144 48.7516 30.352 49.0556 31.568C49.3756 32.784 49.6476 33.92 49.8716 34.976C50.0956 36.016 50.2556 36.888 50.3516 37.592C50.3836 37.752 50.3916 37.864 50.3756 37.928C50.3596 37.976 50.3036 38 50.2076 38H48.8396C48.7756 38 48.7276 37.984 48.6956 37.952C48.6796 37.904 48.6476 37.808 48.5996 37.664C48.5356 37.232 48.4476 36.728 48.3356 36.152C48.2236 35.56 48.1036 34.96 47.9756 34.352C47.9596 34.256 47.9276 34.192 47.8796 34.16C47.8476 34.128 47.7756 34.112 47.6636 34.112H41.6156C41.5196 34.128 41.4556 34.152 41.4236 34.184C41.3916 34.2 41.3596 34.264 41.3276 34.376C41.1996 34.968 41.0796 35.56 40.9676 36.152C40.8556 36.728 40.7596 37.24 40.6796 37.688C40.6636 37.816 40.6396 37.904 40.6076 37.952C40.5916 37.984 40.5436 38 40.4636 38H39.0956ZM41.9756 32.72H47.2796C47.3596 32.72 47.4156 32.696 47.4476 32.648C47.4956 32.6 47.5036 32.504 47.4716 32.36C47.1196 31 46.7596 29.632 46.3916 28.256C46.0396 26.88 45.6076 25.568 45.0956 24.32C45.0636 24.224 44.9916 24.176 44.8796 24.176H44.4236C44.3276 24.176 44.2636 24.232 44.2316 24.344C43.9756 24.968 43.6956 25.736 43.3916 26.648C43.1036 27.544 42.8236 28.496 42.5516 29.504C42.2796 30.512 42.0316 31.496 41.8076 32.456C41.7916 32.52 41.7916 32.584 41.8076 32.648C41.8236 32.696 41.8796 32.72 41.9756 32.72ZM62.6813 34.232C62.7133 34.296 62.7613 34.328 62.8253 34.328C62.9053 34.312 62.9453 34.256 62.9453 34.16C62.9933 33.6 63.0253 32.928 63.0413 32.144C63.0733 31.36 63.0893 30.52 63.0893 29.624C63.1053 28.728 63.1053 27.824 63.0893 26.912C63.0733 26 63.0333 25.128 62.9693 24.296C62.9213 23.464 62.8573 22.72 62.7773 22.064C62.7613 21.92 62.8013 21.848 62.8973 21.848H64.2893C64.3373 21.848 64.3853 21.864 64.4333 21.896C64.4813 21.928 64.5052 21.976 64.5052 22.04C64.6013 22.6 64.6733 23.304 64.7213 24.152C64.7853 24.984 64.8253 25.904 64.8412 26.912C64.8573 27.92 64.8573 28.952 64.8412 30.008C64.8412 31.064 64.8253 32.088 64.7933 33.08C64.7613 34.072 64.7213 34.984 64.6733 35.816C64.6253 36.632 64.5693 37.304 64.5052 37.832C64.4893 37.896 64.4493 37.944 64.3853 37.976C64.3373 37.992 64.2813 38 64.2173 38H63.2812C63.2013 38 63.1293 37.928 63.0653 37.784L55.2173 25.544C55.2013 25.48 55.1613 25.448 55.0973 25.448C55.0493 25.448 55.0173 25.488 55.0013 25.568C54.9693 26.288 54.9373 27.08 54.9053 27.944C54.8733 28.792 54.8493 29.68 54.8333 30.608C54.8333 31.536 54.8413 32.448 54.8573 33.344C54.8893 34.224 54.9213 35.048 54.9533 35.816C55.0013 36.584 55.0653 37.24 55.1453 37.784C55.1453 37.928 55.1053 38 55.0253 38H53.6573C53.5933 38 53.5373 37.992 53.4893 37.976C53.4413 37.944 53.4093 37.896 53.3933 37.832C53.3293 37.288 53.2733 36.6 53.2253 35.768C53.1773 34.936 53.1373 34.024 53.1053 33.032C53.0893 32.024 53.0813 30.992 53.0813 29.936C53.0813 28.88 53.0973 27.856 53.1293 26.864C53.1613 25.856 53.2013 24.936 53.2493 24.104C53.2973 23.256 53.3693 22.568 53.4653 22.04C53.4653 21.976 53.4893 21.928 53.5373 21.896C53.6013 21.864 53.6493 21.848 53.6813 21.848H54.6413C54.7213 21.848 54.7853 21.904 54.8333 22.016L62.6813 34.232ZM67.7363 38C67.6563 38 67.6083 37.976 67.5923 37.928C67.5763 37.864 67.5763 37.752 67.5923 37.592C67.7043 36.84 67.8723 35.936 68.0963 34.88C68.3203 33.824 68.5843 32.696 68.8883 31.496C69.1923 30.296 69.5123 29.104 69.8483 27.92C70.2003 26.736 70.5603 25.64 70.9283 24.632C71.2963 23.608 71.6483 22.76 71.9843 22.088C72.0323 22.008 72.0803 21.952 72.1283 21.92C72.1763 21.872 72.2323 21.848 72.2963 21.848H74.2643C74.3443 21.864 74.4083 21.888 74.4563 21.92C74.5203 21.952 74.5763 22.016 74.6243 22.112C74.9443 22.752 75.2803 23.584 75.6323 24.608C76.0003 25.632 76.3603 26.744 76.7123 27.944C77.0643 29.144 77.3923 30.352 77.6963 31.568C78.0163 32.784 78.2883 33.92 78.5123 34.976C78.7363 36.016 78.8963 36.888 78.9922 37.592C79.0243 37.752 79.0323 37.864 79.0163 37.928C79.0003 37.976 78.9443 38 78.8483 38H77.4803C77.4163 38 77.3683 37.984 77.3363 37.952C77.3203 37.904 77.2883 37.808 77.2403 37.664C77.1763 37.232 77.0883 36.728 76.9763 36.152C76.8643 35.56 76.7443 34.96 76.6163 34.352C76.6003 34.256 76.5683 34.192 76.5203 34.16C76.4883 34.128 76.4163 34.112 76.3043 34.112H70.2563C70.1603 34.128 70.0963 34.152 70.0643 34.184C70.0323 34.2 70.0003 34.264 69.9683 34.376C69.8403 34.968 69.7203 35.56 69.6083 36.152C69.4963 36.728 69.4003 37.24 69.3203 37.688C69.3043 37.816 69.2803 37.904 69.2483 37.952C69.2323 37.984 69.1843 38 69.1043 38H67.7363ZM70.6163 32.72H75.9203C76.0003 32.72 76.0563 32.696 76.0883 32.648C76.1363 32.6 76.1443 32.504 76.1123 32.36C75.7603 31 75.4003 29.632 75.0323 28.256C74.6803 26.88 74.2483 25.568 73.7363 24.32C73.7043 24.224 73.6323 24.176 73.5203 24.176H73.0643C72.9683 24.176 72.9043 24.232 72.8723 24.344C72.6163 24.968 72.3363 25.736 72.0323 26.648C71.7443 27.544 71.4643 28.496 71.1923 29.504C70.9203 30.512 70.6723 31.496 70.4483 32.456C70.4323 32.52 70.4323 32.584 70.4483 32.648C70.4643 32.696 70.5203 32.72 70.6163 32.72Z" fill="white"/>
<g clip-path="url(#clip0_113_3832)">
<path fill-rule="evenodd" clip-rule="evenodd" d="M11.121 38.615C10.8462 38.4455 10.5614 38.2928 10.268 38.158C9.535 37.819 8.557 37.5 7.5 37.5C6.221 37.5 5.062 37.968 4.32 38.362C4.08582 38.4846 3.82479 38.547 3.56047 38.5435C3.29615 38.54 3.03686 38.4708 2.806 38.342C2.56354 38.2113 2.36075 38.0177 2.21893 37.7816C2.07711 37.5454 2.00148 37.2754 2 37V24.5C2 23.879 2.295 23.237 2.898 22.871C3.672 22.401 5.414 21.5 7.5 21.5C9.081 21.5 10.645 22.01 12 22.81C13.355 22.01 14.919 21.5 16.5 21.5C18.586 21.5 20.328 22.4 21.102 22.871C21.705 23.237 22 23.879 22 24.5V37C22 37.633 21.621 38.106 21.194 38.342C20.963 38.4709 20.7035 38.5403 20.439 38.5438C20.1745 38.5473 19.9133 38.4848 19.679 38.362C18.938 37.968 17.779 37.5 16.5 37.5C15.443 37.5 14.465 37.82 13.732 38.158C13.4386 38.2928 13.1538 38.4455 12.879 38.615C12.595 38.792 12.355 39 12.001 39C11.645 39 11.406 38.792 11.121 38.615ZM4 36.294V24.542C4.673 24.142 6 23.5 7.5 23.5C8.73 23.5 9.948 23.918 11 24.542V36.294C10.115 35.898 8.887 35.5 7.5 35.5C6.119 35.5 4.891 35.895 4 36.294ZM13 36.294C13.885 35.898 15.113 35.5 16.5 35.5C17.881 35.5 19.109 35.895 20 36.294V24.542C19.327 24.142 18 23.5 16.5 23.5C15.27 23.5 14.052 23.918 13 24.542V36.294Z" fill="white"/>
</g>
<defs>
<clipPath id="clip0_113_3832">
<rect width="24" height="24" fill="white" transform="translate(0 18)"/>
</clipPath>
</defs>
</svg>
