<svg width="201" height="108" viewBox="0 0 201 108" fill="none" xmlns="http://www.w3.org/2000/svg">
<path d="M158.329 27.9131C156.822 30.0659 148.615 37.276 147.867 36.7523C147.119 36.2286 151.088 26.0509 152.595 23.898C154.102 21.7452 156.608 20.8988 158.191 22.0075C159.775 23.1162 159.836 25.7602 158.329 27.9131Z" fill="#2D9CDB"/>
<path d="M54.4635 23.898C55.9709 26.0508 59.9393 36.2285 59.1914 36.7522C58.4435 37.2759 50.2369 30.0659 48.7294 27.913C47.222 25.7602 47.2836 23.1162 48.867 22.0075C50.4504 20.8988 52.9561 21.7452 54.4635 23.898Z" fill="#2D9CDB"/>
<path d="M108 6.34483C108 9.84898 104.674 24 103.5 24C102.326 24 99 9.84898 99 6.34483C99 2.84068 101.015 0 103.5 0C105.985 0 108 2.84068 108 6.34483Z" fill="#2D9CDB"/>
<path d="M67.596 93.326V90.35C67.596 90.102 67.658 89.9987 67.782 90.04C67.9473 90.0813 68.1333 90.1433 68.34 90.226C69.1667 90.474 70.076 90.722 71.068 90.97C72.06 91.218 73.052 91.4247 74.044 91.59C75.036 91.714 75.8833 91.776 76.586 91.776C79.4793 91.776 81.6493 90.9907 83.096 89.42C84.5427 87.8493 85.266 85.7827 85.266 83.22C85.266 80.9467 84.646 79.2107 83.406 78.012C82.2073 76.772 80.244 75.78 77.516 75.036C76.3173 74.7467 75.0773 74.3953 73.796 73.982C72.5147 73.5687 71.316 72.99 70.2 72.246C69.1253 71.4607 68.2367 70.4067 67.534 69.084C66.8727 67.72 66.542 65.9633 66.542 63.814C66.542 61.2513 67.1207 59.1847 68.278 57.614C69.4353 56.0433 70.9647 54.886 72.866 54.142C74.7673 53.398 76.834 53.026 79.066 53.026C80.058 53.026 81.0707 53.1087 82.104 53.274C83.1373 53.398 84.1087 53.584 85.018 53.832C85.9687 54.08 86.7953 54.3693 87.498 54.7C87.746 54.7413 87.8907 54.824 87.932 54.948C88.0147 55.0307 88.056 55.1753 88.056 55.382V57.986C88.056 58.5647 87.684 58.668 86.94 58.296C85.948 57.8413 84.8113 57.4487 83.53 57.118C82.29 56.746 80.8847 56.56 79.314 56.56C76.8753 56.56 74.8913 57.18 73.362 58.42C71.8327 59.6187 71.068 61.334 71.068 63.566C71.068 65.054 71.3573 66.2527 71.936 67.162C72.5147 68.0713 73.2793 68.7947 74.23 69.332C75.1807 69.8693 76.214 70.3033 77.33 70.634C78.446 70.9647 79.562 71.2747 80.678 71.564C82.7033 72.184 84.398 72.9073 85.762 73.734C87.126 74.5607 88.1593 75.6973 88.862 77.144C89.606 78.5907 89.978 80.5333 89.978 82.972C89.978 85.6587 89.42 87.932 88.304 89.792C87.2293 91.652 85.7 93.078 83.716 94.07C81.7733 95.062 79.4173 95.558 76.648 95.558C75.4907 95.558 74.1267 95.4133 72.556 95.124C71.0267 94.8347 69.6007 94.4833 68.278 94.07C68.03 93.9873 67.844 93.9047 67.72 93.822C67.6373 93.698 67.596 93.5327 67.596 93.326ZM95.247 95C95.0404 95 94.9164 94.938 94.875 94.814C94.8337 94.6487 94.8337 94.3593 94.875 93.946C95.1644 92.0033 95.5984 89.668 96.177 86.94C96.7557 84.212 97.4377 81.298 98.223 78.198C99.0084 75.098 99.835 72.0187 100.703 68.96C101.612 65.9013 102.542 63.07 103.493 60.466C104.444 57.8207 105.353 55.63 106.221 53.894C106.345 53.6873 106.469 53.5427 106.593 53.46C106.717 53.336 106.862 53.274 107.027 53.274H112.111C112.318 53.3153 112.483 53.3773 112.607 53.46C112.772 53.5427 112.917 53.708 113.041 53.956C113.868 55.6093 114.736 57.7587 115.645 60.404C116.596 63.0493 117.526 65.922 118.435 69.022C119.344 72.122 120.192 75.2427 120.977 78.384C121.804 81.5253 122.506 84.46 123.085 87.188C123.664 89.8747 124.077 92.1273 124.325 93.946C124.408 94.3593 124.428 94.6487 124.387 94.814C124.346 94.938 124.201 95 123.953 95H120.419C120.254 95 120.13 94.9587 120.047 94.876C120.006 94.752 119.923 94.504 119.799 94.132C119.634 93.016 119.406 91.714 119.117 90.226C118.828 88.6967 118.518 87.1467 118.187 85.576C118.146 85.328 118.063 85.1627 117.939 85.08C117.856 84.9973 117.67 84.956 117.381 84.956H101.757C101.509 84.9973 101.344 85.0593 101.261 85.142C101.178 85.1833 101.096 85.3487 101.013 85.638C100.682 87.1673 100.372 88.6967 100.083 90.226C99.7937 91.714 99.5457 93.0367 99.339 94.194C99.2977 94.5247 99.2357 94.752 99.153 94.876C99.1117 94.9587 98.9877 95 98.781 95H95.247ZM102.687 81.36H116.389C116.596 81.36 116.74 81.298 116.823 81.174C116.947 81.05 116.968 80.802 116.885 80.43C115.976 76.9167 115.046 73.3827 114.095 69.828C113.186 66.2733 112.07 62.884 110.747 59.66C110.664 59.412 110.478 59.288 110.189 59.288H109.011C108.763 59.288 108.598 59.4327 108.515 59.722C107.854 61.334 107.13 63.318 106.345 65.674C105.601 67.9887 104.878 70.448 104.175 73.052C103.472 75.656 102.832 78.198 102.253 80.678C102.212 80.8433 102.212 81.0087 102.253 81.174C102.294 81.298 102.439 81.36 102.687 81.36ZM156.177 85.266C156.259 85.4313 156.383 85.514 156.549 85.514C156.755 85.4727 156.859 85.328 156.859 85.08C156.983 83.6333 157.065 81.8973 157.107 79.872C157.189 77.8467 157.231 75.6767 157.231 73.362C157.272 71.0473 157.272 68.712 157.231 66.356C157.189 64 157.086 61.7473 156.921 59.598C156.797 57.4487 156.631 55.5267 156.425 53.832C156.383 53.46 156.487 53.274 156.735 53.274H160.331C160.455 53.274 160.579 53.3153 160.703 53.398C160.827 53.4807 160.889 53.6047 160.889 53.77C161.137 55.2167 161.323 57.0353 161.447 59.226C161.612 61.3753 161.715 63.752 161.757 66.356C161.798 68.96 161.798 71.626 161.757 74.354C161.757 77.082 161.715 79.7273 161.633 82.29C161.55 84.8527 161.447 87.2087 161.323 89.358C161.199 91.466 161.054 93.202 160.889 94.566C160.847 94.7313 160.744 94.8553 160.579 94.938C160.455 94.9793 160.31 95 160.145 95H157.727C157.52 95 157.334 94.814 157.169 94.442L136.895 62.822C136.853 62.6567 136.75 62.574 136.585 62.574C136.461 62.574 136.378 62.6773 136.337 62.884C136.254 64.744 136.171 66.79 136.089 69.022C136.006 71.2127 135.944 73.5067 135.903 75.904C135.903 78.3013 135.923 80.6573 135.965 82.972C136.047 85.2453 136.13 87.374 136.213 89.358C136.337 91.342 136.502 93.0367 136.709 94.442C136.709 94.814 136.605 95 136.399 95H132.865C132.699 95 132.555 94.9793 132.431 94.938C132.307 94.8553 132.224 94.7313 132.183 94.566C132.017 93.1607 131.873 91.3833 131.749 89.234C131.625 87.0847 131.521 84.7287 131.439 82.166C131.397 79.562 131.377 76.896 131.377 74.168C131.377 71.44 131.418 68.7947 131.501 66.232C131.583 63.628 131.687 61.2513 131.811 59.102C131.935 56.9113 132.121 55.134 132.369 53.77C132.369 53.6047 132.431 53.4807 132.555 53.398C132.72 53.3153 132.844 53.274 132.927 53.274H135.407C135.613 53.274 135.779 53.4187 135.903 53.708L156.177 85.266ZM169.235 95C169.029 95 168.905 94.938 168.863 94.814C168.822 94.6487 168.822 94.3593 168.863 93.946C169.153 92.0033 169.587 89.668 170.165 86.94C170.744 84.212 171.426 81.298 172.211 78.198C172.997 75.098 173.823 72.0187 174.691 68.96C175.601 65.9013 176.531 63.07 177.481 60.466C178.432 57.8207 179.341 55.63 180.209 53.894C180.333 53.6873 180.457 53.5427 180.581 53.46C180.705 53.336 180.85 53.274 181.015 53.274H186.099C186.306 53.3153 186.471 53.3773 186.595 53.46C186.761 53.5427 186.905 53.708 187.029 53.956C187.856 55.6093 188.724 57.7587 189.633 60.404C190.584 63.0493 191.514 65.922 192.423 69.022C193.333 72.122 194.18 75.2427 194.965 78.384C195.792 81.5253 196.495 84.46 197.073 87.188C197.652 89.8747 198.065 92.1273 198.313 93.946C198.396 94.3593 198.417 94.6487 198.375 94.814C198.334 94.938 198.189 95 197.941 95H194.407C194.242 95 194.118 94.9587 194.035 94.876C193.994 94.752 193.911 94.504 193.787 94.132C193.622 93.016 193.395 91.714 193.105 90.226C192.816 88.6967 192.506 87.1467 192.175 85.576C192.134 85.328 192.051 85.1627 191.927 85.08C191.845 84.9973 191.659 84.956 191.369 84.956H175.745C175.497 84.9973 175.332 85.0593 175.249 85.142C175.167 85.1833 175.084 85.3487 175.001 85.638C174.671 87.1673 174.361 88.6967 174.071 90.226C173.782 91.714 173.534 93.0367 173.327 94.194C173.286 94.5247 173.224 94.752 173.141 94.876C173.1 94.9587 172.976 95 172.769 95H169.235ZM176.675 81.36H190.377C190.584 81.36 190.729 81.298 190.811 81.174C190.935 81.05 190.956 80.802 190.873 80.43C189.964 76.9167 189.034 73.3827 188.083 69.828C187.174 66.2733 186.058 62.884 184.735 59.66C184.653 59.412 184.467 59.288 184.177 59.288H182.999C182.751 59.288 182.586 59.4327 182.503 59.722C181.842 61.334 181.119 63.318 180.333 65.674C179.589 67.9887 178.866 70.448 178.163 73.052C177.461 75.656 176.82 78.198 176.241 80.678C176.2 80.8433 176.2 81.0087 176.241 81.174C176.283 81.298 176.427 81.36 176.675 81.36Z" fill="white"/>
<g clip-path="url(#clip0_10_4075)">
<path fill-rule="evenodd" clip-rule="evenodd" d="M26.8757 93.8196C26.2117 93.4098 25.5233 93.041 24.8143 92.7151C23.0429 91.8959 20.6794 91.125 18.125 91.125C15.0341 91.125 12.2331 92.256 10.44 93.2081C9.87404 93.5045 9.24322 93.6552 8.60445 93.6468C7.96568 93.6384 7.33906 93.471 6.78115 93.1598C6.1952 92.8439 5.70513 92.3761 5.36239 91.8054C5.01965 91.2347 4.8369 90.5823 4.83331 89.9166V59.7083C4.83331 58.2076 5.54623 56.6561 7.00348 55.7716C8.87398 54.6357 13.0838 52.4583 18.125 52.4583C21.9457 52.4583 25.7254 53.6908 29 55.6241C32.2746 53.6908 36.0542 52.4583 39.875 52.4583C44.9161 52.4583 49.126 54.6333 50.9965 55.7716C52.4537 56.6561 53.1666 58.2076 53.1666 59.7083V89.9166C53.1666 91.4464 52.2507 92.5895 51.2188 93.1598C50.6606 93.4714 50.0335 93.639 49.3943 93.6475C48.7551 93.6559 48.1238 93.5049 47.5576 93.2081C45.7668 92.256 42.9659 91.125 39.875 91.125C37.3206 91.125 34.9571 91.8983 33.1856 92.7151C32.4767 93.041 31.7883 93.4098 31.1242 93.8196C30.4379 94.2473 29.8579 94.75 29.0024 94.75C28.1421 94.75 27.5645 94.2473 26.8757 93.8196ZM9.66665 88.2105V59.8098C11.2931 58.8431 14.5 57.2916 18.125 57.2916C21.0975 57.2916 24.041 58.3018 26.5833 59.8098V88.2105C24.4446 87.2535 21.4769 86.2916 18.125 86.2916C14.7876 86.2916 11.8199 87.2462 9.66665 88.2105ZM31.4166 88.2105C33.5554 87.2535 36.5231 86.2916 39.875 86.2916C43.2124 86.2916 46.1801 87.2462 48.3333 88.2105V59.8098C46.7069 58.8431 43.5 57.2916 39.875 57.2916C36.9025 57.2916 33.959 58.3018 31.4166 59.8098V88.2105Z" fill="white"/>
</g>
<defs>
<clipPath id="clip0_10_4075">
<rect width="58" height="58" fill="white" transform="translate(0 44)"/>
</clipPath>
</defs>
</svg>
